<mxfile host="app.diagrams.net" modified="2023-06-07T08:33:53.195Z" agent="Mozilla/5.0 (Windows NT 10.0; Win64; x64) AppleWebKit/537.36 (KHTML, like Gecko) Chrome/114.0.0.0 Safari/537.36" etag="JJv2J1bAv7M7yS1Tzvve" version="21.3.7">
  <diagram name="Página-1" id="altKlWIEwy7CdVfgzB5W">
    <mxGraphModel dx="860" dy="932" grid="1" gridSize="10" guides="1" tooltips="1" connect="1" arrows="1" fold="1" page="1" pageScale="1" pageWidth="827" pageHeight="1169" math="0" shadow="0">
      <root>
        <mxCell id="0" />
        <mxCell id="1" parent="0" />
        <mxCell id="xb_BVNKUW_JwSUMzYblN-39" value="Obtención de certificado de conclusión" style="text;whiteSpace=wrap;html=1;rotation=-1;" vertex="1" parent="1">
          <mxGeometry x="1480" y="17.5" width="216.25" height="32.5" as="geometry" />
        </mxCell>
        <mxCell id="xb_BVNKUW_JwSUMzYblN-164" value="obtención de certificados simples (parte del requerimiento)" style="swimlane;html=1;childLayout=stackLayout;resizeParent=1;resizeParentMax=0;startSize=20;horizontal=0;horizontalStack=1;whiteSpace=wrap;" vertex="1" parent="1">
          <mxGeometry x="890" y="50" width="1280" height="430" as="geometry" />
        </mxCell>
        <mxCell id="xb_BVNKUW_JwSUMzYblN-176" style="edgeStyle=orthogonalEdgeStyle;rounded=0;orthogonalLoop=1;jettySize=auto;html=1;entryX=1;entryY=0.5;entryDx=0;entryDy=0;" edge="1" parent="xb_BVNKUW_JwSUMzYblN-164" source="xb_BVNKUW_JwSUMzYblN-175" target="xb_BVNKUW_JwSUMzYblN-173">
          <mxGeometry relative="1" as="geometry">
            <Array as="points">
              <mxPoint x="910" y="290" />
            </Array>
          </mxGeometry>
        </mxCell>
        <mxCell id="xb_BVNKUW_JwSUMzYblN-177" style="edgeStyle=orthogonalEdgeStyle;rounded=0;orthogonalLoop=1;jettySize=auto;html=1;entryX=0;entryY=0.5;entryDx=0;entryDy=0;" edge="1" parent="xb_BVNKUW_JwSUMzYblN-164" source="xb_BVNKUW_JwSUMzYblN-171" target="xb_BVNKUW_JwSUMzYblN-174">
          <mxGeometry relative="1" as="geometry" />
        </mxCell>
        <mxCell id="xb_BVNKUW_JwSUMzYblN-165" value="Estudiante" style="swimlane;html=1;startSize=20;" vertex="1" parent="xb_BVNKUW_JwSUMzYblN-164">
          <mxGeometry x="20" width="680" height="430" as="geometry" />
        </mxCell>
        <mxCell id="xb_BVNKUW_JwSUMzYblN-172" style="edgeStyle=orthogonalEdgeStyle;rounded=0;orthogonalLoop=1;jettySize=auto;html=1;entryX=0;entryY=0.5;entryDx=0;entryDy=0;" edge="1" parent="xb_BVNKUW_JwSUMzYblN-165" source="xb_BVNKUW_JwSUMzYblN-170" target="xb_BVNKUW_JwSUMzYblN-171">
          <mxGeometry relative="1" as="geometry" />
        </mxCell>
        <mxCell id="xb_BVNKUW_JwSUMzYblN-170" value="selección de tipo de certificado y adicionar información si se requiere" style="rounded=0;whiteSpace=wrap;html=1;" vertex="1" parent="xb_BVNKUW_JwSUMzYblN-165">
          <mxGeometry x="180" y="130" width="120" height="60" as="geometry" />
        </mxCell>
        <mxCell id="xb_BVNKUW_JwSUMzYblN-171" value="pagar certificado" style="rounded=0;whiteSpace=wrap;html=1;" vertex="1" parent="xb_BVNKUW_JwSUMzYblN-165">
          <mxGeometry x="380" y="130" width="120" height="60" as="geometry" />
        </mxCell>
        <mxCell id="xb_BVNKUW_JwSUMzYblN-173" value="recepcionar certificado" style="rounded=0;whiteSpace=wrap;html=1;" vertex="1" parent="xb_BVNKUW_JwSUMzYblN-165">
          <mxGeometry x="380" y="260" width="120" height="60" as="geometry" />
        </mxCell>
        <mxCell id="xb_BVNKUW_JwSUMzYblN-179" value="P1" style="text;strokeColor=none;fillColor=none;html=1;fontSize=24;fontStyle=1;verticalAlign=middle;align=center;fontColor=#1543cb;" vertex="1" parent="xb_BVNKUW_JwSUMzYblN-165">
          <mxGeometry x="220" y="200" width="40" height="30" as="geometry" />
        </mxCell>
        <mxCell id="xb_BVNKUW_JwSUMzYblN-180" value="P2" style="text;strokeColor=none;fillColor=none;html=1;fontSize=24;fontStyle=1;verticalAlign=middle;align=center;fontColor=#1543cb;" vertex="1" parent="xb_BVNKUW_JwSUMzYblN-165">
          <mxGeometry x="420" y="200" width="40" height="30" as="geometry" />
        </mxCell>
        <mxCell id="xb_BVNKUW_JwSUMzYblN-183" value="P5" style="text;strokeColor=none;fillColor=none;html=1;fontSize=24;fontStyle=1;verticalAlign=middle;align=center;fontColor=#1543cb;" vertex="1" parent="xb_BVNKUW_JwSUMzYblN-165">
          <mxGeometry x="420" y="340" width="40" height="30" as="geometry" />
        </mxCell>
        <mxCell id="xb_BVNKUW_JwSUMzYblN-184" value="P9" style="text;strokeColor=none;fillColor=none;html=1;fontSize=24;fontStyle=1;verticalAlign=middle;align=center;fontColor=#1543cb;" vertex="1" parent="xb_BVNKUW_JwSUMzYblN-165">
          <mxGeometry x="10" y="390" width="40" height="30" as="geometry" />
        </mxCell>
        <mxCell id="xb_BVNKUW_JwSUMzYblN-166" value="Dirección de admisiones y registros" style="swimlane;html=1;startSize=20;" vertex="1" parent="xb_BVNKUW_JwSUMzYblN-164">
          <mxGeometry x="700" width="580" height="430" as="geometry" />
        </mxCell>
        <mxCell id="xb_BVNKUW_JwSUMzYblN-178" style="edgeStyle=orthogonalEdgeStyle;rounded=0;orthogonalLoop=1;jettySize=auto;html=1;entryX=0;entryY=0.5;entryDx=0;entryDy=0;" edge="1" parent="xb_BVNKUW_JwSUMzYblN-166" source="xb_BVNKUW_JwSUMzYblN-174" target="xb_BVNKUW_JwSUMzYblN-175">
          <mxGeometry relative="1" as="geometry" />
        </mxCell>
        <mxCell id="xb_BVNKUW_JwSUMzYblN-174" value="tramitar certificado" style="rounded=0;whiteSpace=wrap;html=1;" vertex="1" parent="xb_BVNKUW_JwSUMzYblN-166">
          <mxGeometry x="114" y="130" width="120" height="60" as="geometry" />
        </mxCell>
        <mxCell id="xb_BVNKUW_JwSUMzYblN-175" value="emitir certificado" style="rounded=0;whiteSpace=wrap;html=1;" vertex="1" parent="xb_BVNKUW_JwSUMzYblN-166">
          <mxGeometry x="320" y="130" width="120" height="60" as="geometry" />
        </mxCell>
        <mxCell id="xb_BVNKUW_JwSUMzYblN-182" value="P3" style="text;strokeColor=none;fillColor=none;html=1;fontSize=24;fontStyle=1;verticalAlign=middle;align=center;fontColor=#1543cb;" vertex="1" parent="xb_BVNKUW_JwSUMzYblN-166">
          <mxGeometry x="154" y="200" width="40" height="30" as="geometry" />
        </mxCell>
        <mxCell id="xb_BVNKUW_JwSUMzYblN-181" value="P4" style="text;strokeColor=none;fillColor=none;html=1;fontSize=24;fontStyle=1;verticalAlign=middle;align=center;fontColor=#1543cb;" vertex="1" parent="xb_BVNKUW_JwSUMzYblN-166">
          <mxGeometry x="360" y="200" width="40" height="30" as="geometry" />
        </mxCell>
        <mxCell id="xb_BVNKUW_JwSUMzYblN-185" value="Obtención de certificado de conclusión de estudios" style="swimlane;html=1;childLayout=stackLayout;resizeParent=1;resizeParentMax=0;startSize=20;horizontal=0;horizontalStack=1;whiteSpace=wrap;" vertex="1" parent="1">
          <mxGeometry x="890" y="500" width="1280" height="480" as="geometry" />
        </mxCell>
        <mxCell id="xb_BVNKUW_JwSUMzYblN-186" value="Estudiante" style="swimlane;html=1;startSize=20;" vertex="1" parent="xb_BVNKUW_JwSUMzYblN-185">
          <mxGeometry x="20" width="570" height="480" as="geometry" />
        </mxCell>
        <mxCell id="xb_BVNKUW_JwSUMzYblN-211" style="edgeStyle=orthogonalEdgeStyle;rounded=0;orthogonalLoop=1;jettySize=auto;html=1;entryX=0;entryY=0.5;entryDx=0;entryDy=0;" edge="1" parent="xb_BVNKUW_JwSUMzYblN-186" source="xb_BVNKUW_JwSUMzYblN-192" target="xb_BVNKUW_JwSUMzYblN-209">
          <mxGeometry relative="1" as="geometry" />
        </mxCell>
        <mxCell id="xb_BVNKUW_JwSUMzYblN-192" value="elaboración de carta de solicitud" style="rounded=0;whiteSpace=wrap;html=1;" vertex="1" parent="xb_BVNKUW_JwSUMzYblN-186">
          <mxGeometry x="30" y="100" width="120" height="60" as="geometry" />
        </mxCell>
        <mxCell id="xb_BVNKUW_JwSUMzYblN-212" style="edgeStyle=orthogonalEdgeStyle;rounded=0;orthogonalLoop=1;jettySize=auto;html=1;entryX=0;entryY=0.5;entryDx=0;entryDy=0;" edge="1" parent="xb_BVNKUW_JwSUMzYblN-186" source="xb_BVNKUW_JwSUMzYblN-209" target="xb_BVNKUW_JwSUMzYblN-210">
          <mxGeometry relative="1" as="geometry" />
        </mxCell>
        <mxCell id="xb_BVNKUW_JwSUMzYblN-209" value="elaboración de carta de solicitud" style="rounded=0;whiteSpace=wrap;html=1;" vertex="1" parent="xb_BVNKUW_JwSUMzYblN-186">
          <mxGeometry x="210.5" y="100" width="120" height="60" as="geometry" />
        </mxCell>
        <mxCell id="xb_BVNKUW_JwSUMzYblN-210" value="presentación de requisitos de manera física" style="rounded=0;whiteSpace=wrap;html=1;" vertex="1" parent="xb_BVNKUW_JwSUMzYblN-186">
          <mxGeometry x="400" y="100" width="120" height="60" as="geometry" />
        </mxCell>
        <mxCell id="xb_BVNKUW_JwSUMzYblN-194" value="lista de observaciones" style="rounded=0;whiteSpace=wrap;html=1;" vertex="1" parent="xb_BVNKUW_JwSUMzYblN-186">
          <mxGeometry x="400" y="270" width="120" height="60" as="geometry" />
        </mxCell>
        <mxCell id="xb_BVNKUW_JwSUMzYblN-195" value="P1" style="text;strokeColor=none;fillColor=none;html=1;fontSize=24;fontStyle=1;verticalAlign=middle;align=center;fontColor=#1543cb;" vertex="1" parent="xb_BVNKUW_JwSUMzYblN-186">
          <mxGeometry x="70" y="55" width="40" height="30" as="geometry" />
        </mxCell>
        <mxCell id="xb_BVNKUW_JwSUMzYblN-196" value="P2" style="text;strokeColor=none;fillColor=none;html=1;fontSize=24;fontStyle=1;verticalAlign=middle;align=center;fontColor=#1543cb;" vertex="1" parent="xb_BVNKUW_JwSUMzYblN-186">
          <mxGeometry x="250.5" y="55" width="40" height="30" as="geometry" />
        </mxCell>
        <mxCell id="xb_BVNKUW_JwSUMzYblN-215" value="P3" style="text;strokeColor=none;fillColor=none;html=1;fontSize=24;fontStyle=1;verticalAlign=middle;align=center;fontColor=#1543cb;" vertex="1" parent="xb_BVNKUW_JwSUMzYblN-186">
          <mxGeometry x="440" y="55" width="40" height="30" as="geometry" />
        </mxCell>
        <mxCell id="xb_BVNKUW_JwSUMzYblN-197" value="P7" style="text;strokeColor=none;fillColor=none;html=1;fontSize=24;fontStyle=1;verticalAlign=middle;align=center;fontColor=#1543cb;" vertex="1" parent="xb_BVNKUW_JwSUMzYblN-186">
          <mxGeometry x="440" y="350" width="40" height="30" as="geometry" />
        </mxCell>
        <mxCell id="xb_BVNKUW_JwSUMzYblN-187" value="Unidad de servicios académicos (Kardex académico)" style="swimlane;html=1;startSize=20;" vertex="1" parent="xb_BVNKUW_JwSUMzYblN-185">
          <mxGeometry x="590" width="380" height="480" as="geometry" />
        </mxCell>
        <mxCell id="xb_BVNKUW_JwSUMzYblN-199" value="recepción y verificación del cumplimiento de requisitos" style="rounded=0;whiteSpace=wrap;html=1;" vertex="1" parent="xb_BVNKUW_JwSUMzYblN-187">
          <mxGeometry x="60" y="100" width="120" height="60" as="geometry" />
        </mxCell>
        <mxCell id="xb_BVNKUW_JwSUMzYblN-208" value="P4" style="text;strokeColor=none;fillColor=none;html=1;fontSize=24;fontStyle=1;verticalAlign=middle;align=center;fontColor=#1543cb;" vertex="1" parent="xb_BVNKUW_JwSUMzYblN-187">
          <mxGeometry x="100" y="54" width="40" height="30" as="geometry" />
        </mxCell>
        <mxCell id="xb_BVNKUW_JwSUMzYblN-205" value="¿observaciones?" style="rhombus;whiteSpace=wrap;html=1;" vertex="1" parent="xb_BVNKUW_JwSUMzYblN-187">
          <mxGeometry x="250" y="90" width="110" height="80" as="geometry" />
        </mxCell>
        <mxCell id="xb_BVNKUW_JwSUMzYblN-207" style="edgeStyle=orthogonalEdgeStyle;rounded=0;orthogonalLoop=1;jettySize=auto;html=1;entryX=0;entryY=0.5;entryDx=0;entryDy=0;" edge="1" parent="xb_BVNKUW_JwSUMzYblN-187" source="xb_BVNKUW_JwSUMzYblN-199" target="xb_BVNKUW_JwSUMzYblN-205">
          <mxGeometry relative="1" as="geometry" />
        </mxCell>
        <mxCell id="xb_BVNKUW_JwSUMzYblN-201" value="P5" style="text;strokeColor=none;fillColor=none;html=1;fontSize=24;fontStyle=1;verticalAlign=middle;align=center;fontColor=#1543cb;" vertex="1" parent="xb_BVNKUW_JwSUMzYblN-187">
          <mxGeometry x="290" y="54" width="40" height="30" as="geometry" />
        </mxCell>
        <mxCell id="xb_BVNKUW_JwSUMzYblN-188" value="Kardex facultativa" style="swimlane;html=1;startSize=20;" vertex="1" parent="xb_BVNKUW_JwSUMzYblN-185">
          <mxGeometry x="970" width="310" height="480" as="geometry" />
        </mxCell>
        <mxCell id="xb_BVNKUW_JwSUMzYblN-202" value="P6" style="text;strokeColor=none;fillColor=none;html=1;fontSize=24;fontStyle=1;verticalAlign=middle;align=center;fontColor=#1543cb;" vertex="1" parent="xb_BVNKUW_JwSUMzYblN-188">
          <mxGeometry x="135" y="54" width="40" height="30" as="geometry" />
        </mxCell>
        <mxCell id="xb_BVNKUW_JwSUMzYblN-200" value="recepción de folder y proceso de preparación" style="rounded=0;whiteSpace=wrap;html=1;" vertex="1" parent="xb_BVNKUW_JwSUMzYblN-188">
          <mxGeometry x="90" y="100" width="120" height="60" as="geometry" />
        </mxCell>
        <mxCell id="xb_BVNKUW_JwSUMzYblN-206" style="edgeStyle=orthogonalEdgeStyle;rounded=0;orthogonalLoop=1;jettySize=auto;html=1;entryX=0;entryY=0.5;entryDx=0;entryDy=0;" edge="1" parent="xb_BVNKUW_JwSUMzYblN-185" source="xb_BVNKUW_JwSUMzYblN-205" target="xb_BVNKUW_JwSUMzYblN-200">
          <mxGeometry relative="1" as="geometry" />
        </mxCell>
        <mxCell id="xb_BVNKUW_JwSUMzYblN-213" style="edgeStyle=orthogonalEdgeStyle;rounded=0;orthogonalLoop=1;jettySize=auto;html=1;" edge="1" parent="xb_BVNKUW_JwSUMzYblN-185" source="xb_BVNKUW_JwSUMzYblN-210" target="xb_BVNKUW_JwSUMzYblN-199">
          <mxGeometry relative="1" as="geometry" />
        </mxCell>
        <mxCell id="xb_BVNKUW_JwSUMzYblN-216" style="edgeStyle=orthogonalEdgeStyle;rounded=0;orthogonalLoop=1;jettySize=auto;html=1;entryX=1.028;entryY=0.498;entryDx=0;entryDy=0;entryPerimeter=0;" edge="1" parent="xb_BVNKUW_JwSUMzYblN-185" source="xb_BVNKUW_JwSUMzYblN-205" target="xb_BVNKUW_JwSUMzYblN-194">
          <mxGeometry relative="1" as="geometry">
            <mxPoint x="550" y="300" as="targetPoint" />
            <Array as="points">
              <mxPoint x="895" y="300" />
            </Array>
          </mxGeometry>
        </mxCell>
      </root>
    </mxGraphModel>
  </diagram>
</mxfile>
